<svg width="60" height="60" viewBox="0 0 60 60" fill="none" xmlns="http://www.w3.org/2000/svg">
<g clip-path="url(#clip0_2_96)">
<path d="M30 60C46.5685 60 60 46.5685 60 30C60 13.4315 46.5685 0 30 0C13.4315 0 0 13.4315 0 30C0 46.5685 13.4315 60 30 60Z" fill="#E16B5A"/>
<mask id="mask0_2_96" style="mask-type:luminance" maskUnits="userSpaceOnUse" x="0" y="0" width="60" height="60">
<path d="M30 60C46.5685 60 60 46.5685 60 30C60 13.4315 46.5685 0 30 0C13.4315 0 0 13.4315 0 30C0 46.5685 13.4315 60 30 60Z" fill="white"/>
</mask>
<g mask="url(#mask0_2_96)">
<path d="M36.2695 47.6077H23.408V58.2131H36.2695V47.6077Z" fill="#CCCCCC"/>
<path d="M30.9816 54.038L32.1389 51.5039L29.5092 48.75L26.88 51.5039L28.0369 54.038H28.2863L27.8466 55.0927L28.8061 64.6097L29.5092 67.305L30.2123 64.6097L31.1719 55.0927L30.7327 54.038H30.9816Z" fill="#CC584C"/>
<path d="M21.2986 45.8789L29.5092 57.5391V63.8086H6.67969L9.49219 49.3945L21.2986 45.8789Z" fill="#406A80"/>
<path d="M37.7198 45.8789L29.5092 57.5391V63.8086H52.3387L49.0575 49.8633L37.7198 45.8789Z" fill="#406A80"/>
<path d="M35.1609 44.2613L29.5092 43.5938L23.8575 44.2613L21.2986 45.8789L25.9425 52.4414L29.5092 48.75L33.0764 52.4414L37.7198 45.8789L35.1609 44.2613Z" fill="#F5F5F5"/>
<path d="M35.3306 44.7952H35.3325L33.728 39.8048L29.5092 39.4927L25.2905 39.8048L23.6859 44.7952H23.6878C23.6639 44.8636 23.6494 44.9334 23.6494 45.0028C23.6494 46.0369 26.273 46.8745 29.5088 46.8745C32.7445 46.8745 35.3681 46.0369 35.3681 45.0028C35.3686 44.933 35.3541 44.8636 35.3306 44.7952Z" fill="#E6CBC3"/>
<path d="M35.3306 44.7952H35.3325L33.728 39.8048L29.5092 39.4927L28.6889 39.5531L32.0873 39.8048L33.6919 44.7952H33.69C33.7139 44.8636 33.7284 44.9334 33.7284 45.0028C33.7284 45.9478 31.5361 46.7269 28.6894 46.8544C28.958 46.8656 29.2303 46.8745 29.5097 46.8745C32.7455 46.8745 35.3691 46.0369 35.3691 45.0028C35.3686 44.933 35.3541 44.8636 35.3306 44.7952Z" fill="#D9BFB8"/>
<path d="M41.6967 19.6875V14.8111C41.6967 11.0081 38.9916 7.96875 29.5092 7.96875C20.0269 7.96875 17.3217 11.0081 17.3217 14.8111V19.6875C17.3217 19.6875 15.4467 19.8258 15.4467 21.0938V26.2823C15.4467 27.5498 15.9155 28.5938 17.3217 28.5938C17.3217 34.9317 22.9575 42.1875 29.5092 42.1875C36.0609 42.1875 41.6967 34.9317 41.6967 28.5938C43.103 28.5938 43.5717 27.5498 43.5717 26.2823V21.0938C43.5717 19.8258 41.6967 19.6875 41.6967 19.6875Z" fill="#FFE1D9"/>
<path d="M29.5092 7.96875C29.2697 7.96875 29.0372 7.97203 28.8061 7.97578C37.7175 8.12391 40.2905 11.1042 40.2905 14.8111V19.6875V28.5938C40.2905 34.7039 35.0517 41.6639 28.8061 42.1575C29.0395 42.1758 29.2734 42.1875 29.5092 42.1875C36.0609 42.1875 41.6967 34.9317 41.6967 28.5938V19.6875V14.8111C41.6967 11.0081 38.9925 7.96875 29.5092 7.96875Z" fill="#F2D6CE"/>
<path d="M29.5092 7.96875C20.0269 7.96875 17.3217 11.0081 17.3217 14.8111V19.6875V24.8438C17.7558 22.6734 18.9952 16.4855 21.7819 14.4656C23.9995 15.0994 26.6545 15.4688 29.5092 15.4688C32.3639 15.4688 35.0184 15.0989 37.2361 14.4656C40.0228 16.4859 41.2627 22.6734 41.6967 24.8438V19.6875V14.8111C41.6967 11.0081 38.9925 7.96875 29.5092 7.96875Z" fill="#805026"/>
<path d="M29.5092 7.96875C29.2702 7.96875 29.0381 7.97203 28.8075 7.97578C37.718 8.12437 40.2905 11.1042 40.2905 14.8111V19.4377C41.0372 21.5602 41.4741 23.7305 41.6967 24.8438V19.6875V14.8111C41.6967 11.0081 38.9925 7.96875 29.5092 7.96875Z" fill="#734822"/>
<path d="M32.5111 34.6683C32.6166 35.175 31.2806 35.9133 29.5092 35.9133C27.7378 35.9133 26.4019 35.175 26.5069 34.6683C26.6119 34.1611 27.9478 34.0383 29.5092 34.0383C31.0706 34.0383 32.407 34.1611 32.5111 34.6683Z" fill="#CC9B8E"/>
</g>
<path d="M24.8438 24.8438C25.8793 24.8438 26.7188 24.2142 26.7188 23.4375C26.7188 22.6608 25.8793 22.0312 24.8438 22.0312C23.8082 22.0312 22.9688 22.6608 22.9688 23.4375C22.9688 24.2142 23.8082 24.8438 24.8438 24.8438Z" fill="#F5F5F5"/>
<path d="M24.8438 24.375C25.3615 24.375 25.7812 23.9553 25.7812 23.4375C25.7812 22.9197 25.3615 22.5 24.8438 22.5C24.326 22.5 23.9062 22.9197 23.9062 23.4375C23.9062 23.9553 24.326 24.375 24.8438 24.375Z" fill="#734822"/>
<path d="M34.2188 24.8438C35.2543 24.8438 36.0938 24.2142 36.0938 23.4375C36.0938 22.6608 35.2543 22.0312 34.2188 22.0312C33.1832 22.0312 32.3438 22.6608 32.3438 23.4375C32.3438 24.2142 33.1832 24.8438 34.2188 24.8438Z" fill="#F5F5F5"/>
<path d="M34.2188 24.375C34.7365 24.375 35.1562 23.9553 35.1562 23.4375C35.1562 22.9197 34.7365 22.5 34.2188 22.5C33.701 22.5 33.2812 22.9197 33.2812 23.4375C33.2812 23.9553 33.701 24.375 34.2188 24.375Z" fill="#734822"/>
</g>
<defs>
<clipPath id="clip0_2_96">
<rect width="60" height="60" fill="white"/>
</clipPath>
</defs>
</svg>
