<svg width="60" height="60" viewBox="0 0 60 60" fill="none" xmlns="http://www.w3.org/2000/svg">
<g clip-path="url(#clip0_3_126)">
<path d="M30 60C46.5685 60 60 46.5685 60 30C60 13.4315 46.5685 0 30 0C13.4315 0 0 13.4315 0 30C0 46.5685 13.4315 60 30 60Z" fill="#88C5CC"/>
<mask id="mask0_3_126" style="mask-type:luminance" maskUnits="userSpaceOnUse" x="0" y="0" width="60" height="60">
<path d="M30 60C46.5685 60 60 46.5685 60 30C60 13.4315 46.5685 0 30 0C13.4315 0 0 13.4315 0 30C0 46.5685 13.4315 60 30 60Z" fill="white"/>
</mask>
<g mask="url(#mask0_3_126)">
<path d="M51.9736 54.375C49.8277 43.5938 33.7336 45 29.978 45C26.2224 45 10.1283 43.5938 7.98236 54.375C5.83642 65.1562 16.5666 68.9062 16.5666 68.9062H29.978H43.3894C43.3894 68.9062 54.1195 65.1562 51.9736 54.375Z" fill="#CC584C"/>
<path d="M40.7812 54.375C39.7181 43.5938 31.9027 46.875 30.0427 46.875C28.1831 46.875 20.1562 43.5938 19.2188 54.375V70.3125H40.7812V54.375Z" fill="#406A80"/>
<path d="M29.978 47.8125C33.6023 47.8125 36.5405 46.6582 36.5405 45.2344C36.5405 43.8105 33.6023 42.6562 29.978 42.6562C26.3536 42.6562 23.4155 43.8105 23.4155 45.2344C23.4155 46.6582 26.3536 47.8125 29.978 47.8125Z" fill="#F5F5F5"/>
<path d="M35.7989 43.8577H35.8012L34.1967 38.8673L29.978 38.5552L25.7592 38.8673L24.1547 43.8577H24.157C24.1331 43.9261 24.1186 43.9959 24.1186 44.0653C24.1186 45.0994 26.7422 45.937 29.978 45.937C33.2133 45.937 35.8373 45.0994 35.8373 44.0653C35.8373 43.9955 35.8228 43.9261 35.7989 43.8577Z" fill="#E6CBC3"/>
<path d="M35.7989 43.8577H35.8012L34.1967 38.8673L29.978 38.5552L29.1577 38.6156L32.5561 38.8673L34.1606 43.8577H34.1583C34.1822 43.9261 34.1967 43.9959 34.1967 44.0653C34.1967 45.0103 32.0039 45.7889 29.1577 45.9169C29.4262 45.9286 29.6986 45.937 29.978 45.937C33.2133 45.937 35.8373 45.0994 35.8373 44.0653C35.8373 43.9955 35.8228 43.9261 35.7989 43.8577Z" fill="#D9BFB8"/>
<path d="M42.1875 18.75L41.7188 16.875C41.7188 13.072 39.4823 7.03125 30 7.03125C20.5177 7.03125 18.2812 13.072 18.2812 16.875L17.8125 18.75C17.8125 18.75 15.9375 18.8883 15.9375 20.1562V25.3448C15.9375 26.6123 16.4062 27.6562 17.8125 27.6562C17.8125 33.9947 23.4483 41.25 30 41.25C36.5517 41.25 42.1875 33.9947 42.1875 27.6562C43.5938 27.6562 44.0625 26.6123 44.0625 25.3448V20.1562C44.0625 18.8883 42.1875 18.75 42.1875 18.75Z" fill="#FFE1D9"/>
<path d="M42.1875 27.6562C41.25 26.7188 41.25 20.625 42.1875 18.75C42.1875 15.4688 42.1875 8.90625 37.5 8.90625C38.626 10.29 40.3125 14.2969 40.3125 18.2812C40.3125 20.0583 40.4372 20.5861 40.7593 21.0938C41.0813 21.6014 41.228 22.305 41.228 23.4375C41.228 26.25 38.9452 31.2891 35.1563 32.8125C35.1563 31.4845 33.3422 29.5312 30 29.5312C26.6579 29.5312 24.8438 31.4845 24.8438 32.8125C21.0549 31.2891 18.7721 26.25 18.7721 23.4375C18.7721 22.305 18.9188 21.6014 19.2408 21.0938C19.5629 20.5861 19.6875 20.0583 19.6875 18.2812C19.6875 14.2969 21.3741 10.29 22.5 8.90625C17.8125 8.90625 17.8125 15.4688 17.8125 18.75C18.75 20.625 18.75 26.7188 17.8125 27.6562C16.875 31.4062 18.75 35.1562 18.2813 36.5625C20.1563 36.5625 22.9688 42.1875 30 43.125C37.0313 42.1875 39.8438 36.5625 41.7188 36.5625C41.25 35.1562 43.125 31.4062 42.1875 27.6562ZM30 33.2812C31.8122 33.2812 33.2813 33.8691 33.2813 34.5938C33.2813 35.3184 31.8122 35.9062 30 35.9062C28.1879 35.9062 26.7188 35.3184 26.7188 34.5938C26.7188 33.8691 28.1879 33.2812 30 33.2812Z" fill="#66401E"/>
<path d="M19.2188 16.875C19.6875 13.125 25.7812 16.4062 26.25 12.1875C28.125 16.875 39.375 10.7812 40.7812 16.4062C41.25 14.5312 39.8438 10.3125 39.8438 10.3125H20.625L19.2188 16.875Z" fill="#66401E"/>
<path d="M37.0312 6.09375L34.6875 3.28125L32.3438 6.09375L30 1.875L27.6562 6.09375L25.3125 3.28125L22.9688 6.09375L20.1562 4.6875L20.625 10.7812C20.625 10.7812 25.3125 11.7188 30 11.7188C34.6875 11.7188 39.375 10.7812 39.375 10.7812L39.8438 4.6875L37.0312 6.09375Z" fill="#FFD464"/>
<path d="M30 10.7812C31.0355 10.7812 31.875 9.94178 31.875 8.90625C31.875 7.87072 31.0355 7.03125 30 7.03125C28.9645 7.03125 28.125 7.87072 28.125 8.90625C28.125 9.94178 28.9645 10.7812 30 10.7812Z" fill="#CC584C"/>
<path d="M24.1406 10.3125C24.9173 10.3125 25.5469 9.6829 25.5469 8.90625C25.5469 8.1296 24.9173 7.5 24.1406 7.5C23.364 7.5 22.7344 8.1296 22.7344 8.90625C22.7344 9.6829 23.364 10.3125 24.1406 10.3125Z" fill="#CC584C"/>
<path d="M35.8594 10.3125C36.636 10.3125 37.2656 9.6829 37.2656 8.90625C37.2656 8.1296 36.636 7.5 35.8594 7.5C35.0827 7.5 34.4531 8.1296 34.4531 8.90625C34.4531 9.6829 35.0827 10.3125 35.8594 10.3125Z" fill="#CC584C"/>
</g>
<path d="M25.3125 22.5C26.348 22.5 27.1875 21.8704 27.1875 21.0938C27.1875 20.3171 26.348 19.6875 25.3125 19.6875C24.277 19.6875 23.4375 20.3171 23.4375 21.0938C23.4375 21.8704 24.277 22.5 25.3125 22.5Z" fill="#F5F5F5"/>
<path d="M25.3125 22.0312C25.8303 22.0312 26.25 21.6115 26.25 21.0938C26.25 20.576 25.8303 20.1562 25.3125 20.1562C24.7947 20.1562 24.375 20.576 24.375 21.0938C24.375 21.6115 24.7947 22.0312 25.3125 22.0312Z" fill="#2179A6"/>
<path d="M34.6875 22.5C35.723 22.5 36.5625 21.8704 36.5625 21.0938C36.5625 20.3171 35.723 19.6875 34.6875 19.6875C33.652 19.6875 32.8125 20.3171 32.8125 21.0938C32.8125 21.8704 33.652 22.5 34.6875 22.5Z" fill="#F5F5F5"/>
<path d="M34.6875 22.0312C35.2053 22.0312 35.625 21.6115 35.625 21.0938C35.625 20.576 35.2053 20.1562 34.6875 20.1562C34.1697 20.1562 33.75 20.576 33.75 21.0938C33.75 21.6115 34.1697 22.0312 34.6875 22.0312Z" fill="#2179A6"/>
</g>
<defs>
<clipPath id="clip0_3_126">
<rect width="60" height="60" fill="white"/>
</clipPath>
</defs>
</svg>
