<svg width="60" height="60" viewBox="0 0 60 60" fill="none" xmlns="http://www.w3.org/2000/svg">
<g clip-path="url(#clip0_2_67)">
<path d="M30 60C46.5685 60 60 46.5685 60 30C60 13.4315 46.5685 0 30 0C13.4315 0 0 13.4315 0 30C0 46.5685 13.4315 60 30 60Z" fill="#4AB8A1"/>
<mask id="mask0_2_67" style="mask-type:luminance" maskUnits="userSpaceOnUse" x="0" y="0" width="60" height="60">
<path d="M30 60C46.5685 60 60 46.5685 60 30C60 13.4315 46.5685 0 30 0C13.4315 0 0 13.4315 0 30C0 46.5685 13.4315 60 30 60Z" fill="white"/>
</mask>
<g mask="url(#mask0_2_67)">
<path d="M51.5044 55.3125C49.3589 44.5313 33.2648 45.4688 29.5092 45.4688C25.7541 45.4688 9.65953 44.5313 7.51359 55.3125C5.36765 66.0938 16.0973 69.8438 16.0973 69.8438H29.5092H42.9206C42.9206 69.8438 53.6503 66.0938 51.5044 55.3125Z" fill="#992B1F"/>
<path d="M51.5044 55.3125C49.5094 45.2888 35.4628 45.3947 30.4795 45.4589C36.5967 45.5677 47.1989 46.703 48.9126 55.3125C51.0586 66.0938 40.3284 69.8438 40.3284 69.8438H42.9201C42.9201 69.8438 53.6503 66.0938 51.5044 55.3125Z" fill="#8C271C"/>
<path d="M29.5092 48.75C33.1336 48.75 36.0717 47.5957 36.0717 46.1719C36.0717 44.748 33.1336 43.5938 29.5092 43.5938C25.8848 43.5938 22.9467 44.748 22.9467 46.1719C22.9467 47.5957 25.8848 48.75 29.5092 48.75Z" fill="#F5F5F5"/>
<path d="M35.3301 44.7952H35.332L33.7279 39.8048L29.5092 39.4927L25.2904 39.8048L23.6859 44.7956H23.6878C23.6639 44.8641 23.6494 44.933 23.6494 45.0028C23.6494 46.0369 26.2729 46.8745 29.5087 46.8745C32.7445 46.8745 35.3681 46.0364 35.3681 45.0028C35.3686 44.933 35.354 44.8636 35.3301 44.7952Z" fill="#E6CBC3"/>
<path d="M35.3302 44.7952H35.332L33.728 39.8048L29.5092 39.4927L28.6889 39.5531L32.0873 39.8044L33.6919 44.7952H33.69C33.7144 44.8636 33.7284 44.9325 33.7284 45.0028C33.7284 45.9478 31.5361 46.7269 28.6894 46.8544C28.958 46.8656 29.2303 46.8745 29.5097 46.8745C32.7455 46.8745 35.3691 46.0364 35.3691 45.0028C35.3686 44.933 35.3541 44.8636 35.3302 44.7952Z" fill="#D9BFB8"/>
<path d="M41.6967 19.6875V14.8111C41.6967 11.0081 38.9916 7.96875 29.5092 7.96875C20.0269 7.96875 17.3217 11.0081 17.3217 14.8111V19.6875C17.3217 19.6875 15.4467 19.8258 15.4467 21.0938V26.2823C15.4467 27.5498 15.9155 28.5938 17.3217 28.5938C17.3217 34.9317 22.9575 42.1875 29.5092 42.1875C36.0609 42.1875 41.6967 34.9317 41.6967 28.5938C43.103 28.5938 43.5717 27.5498 43.5717 26.2823V21.0938C43.5717 19.8258 41.6967 19.6875 41.6967 19.6875Z" fill="#FFE1D9"/>
<path d="M29.5092 7.96875C29.2697 7.96875 29.0372 7.97203 28.8061 7.97578C37.718 8.12391 40.2905 11.1042 40.2905 14.8111V19.6875V28.5938C40.2905 34.7044 35.0522 41.6639 28.8061 42.1575C29.0395 42.1758 29.2734 42.1875 29.5092 42.1875C36.0609 42.1875 41.6967 34.9317 41.6967 28.5938V19.6875V14.8111C41.6967 11.0081 38.9916 7.96875 29.5092 7.96875Z" fill="#F2D6CE"/>
<path d="M29.5092 7.96875C20.0269 7.96875 17.3217 11.0081 17.3217 14.8111V19.6875V24.8438C17.7558 22.6734 18.9952 16.4855 21.7819 14.4656C23.9995 15.0994 26.6545 15.4688 29.5092 15.4688C32.3639 15.4688 35.0184 15.0989 37.2361 14.4656C40.0228 16.4859 41.2627 22.6734 41.6967 24.8438V19.6875V14.8111C41.6967 11.0081 38.9916 7.96875 29.5092 7.96875Z" fill="#CC584C"/>
<path d="M29.5092 7.96875C29.2702 7.96875 29.0381 7.97203 28.8075 7.97578C37.718 8.12437 40.2905 11.1042 40.2905 14.8111V19.4377C41.0372 21.5602 41.4741 23.7305 41.6967 24.8438V19.6875V14.8111C41.6967 11.0081 38.9916 7.96875 29.5092 7.96875Z" fill="#BF5347"/>
<path d="M32.5111 34.6678C32.6165 35.175 31.2806 35.9133 29.5092 35.9133C27.7378 35.9133 26.4019 35.175 26.5069 34.6678C26.6119 34.1606 27.9478 34.0378 29.5092 34.0378C31.0706 34.0378 32.407 34.1611 32.5111 34.6678Z" fill="#CC9B8E"/>
</g>
<path d="M24.353 23.4375C25.3885 23.4375 26.228 22.8079 26.228 22.0312C26.228 21.2546 25.3885 20.625 24.353 20.625C23.3174 20.625 22.478 21.2546 22.478 22.0312C22.478 22.8079 23.3174 23.4375 24.353 23.4375Z" fill="#F5F5F5"/>
<path d="M24.353 22.9688C24.8707 22.9688 25.2905 22.549 25.2905 22.0312C25.2905 21.5135 24.8707 21.0938 24.353 21.0938C23.8352 21.0938 23.4155 21.5135 23.4155 22.0312C23.4155 22.549 23.8352 22.9688 24.353 22.9688Z" fill="#992B1F"/>
<path d="M33.728 23.4375C34.7635 23.4375 35.603 22.8079 35.603 22.0312C35.603 21.2546 34.7635 20.625 33.728 20.625C32.6924 20.625 31.853 21.2546 31.853 22.0312C31.853 22.8079 32.6924 23.4375 33.728 23.4375Z" fill="#F5F5F5"/>
<path d="M33.728 22.9688C34.2457 22.9688 34.6655 22.549 34.6655 22.0312C34.6655 21.5135 34.2457 21.0938 33.728 21.0938C33.2102 21.0938 32.7905 21.5135 32.7905 22.0312C32.7905 22.549 33.2102 22.9688 33.728 22.9688Z" fill="#992B1F"/>
</g>
<defs>
<clipPath id="clip0_2_67">
<rect width="60" height="60" fill="white"/>
</clipPath>
</defs>
</svg>
