<svg width="60" height="60" viewBox="0 0 60 60" fill="none" xmlns="http://www.w3.org/2000/svg">
<g clip-path="url(#clip0_2_28)">
<path d="M30 60C46.5685 60 60 46.5685 60 30C60 13.4315 46.5685 0 30 0C13.4315 0 0 13.4315 0 30C0 46.5685 13.4315 60 30 60Z" fill="#2D4452"/>
<mask id="mask0_2_28" style="mask-type:luminance" maskUnits="userSpaceOnUse" x="0" y="0" width="60" height="60">
<path d="M30 60C46.5685 60 60 46.5685 60 30C60 13.4315 46.5685 0 30 0C13.4315 0 0 13.4315 0 30C0 46.5685 13.4315 60 30 60Z" fill="white"/>
</mask>
<g mask="url(#mask0_2_28)">
<path d="M50.2763 34.6847C47.7413 39.5048 41.198 44.3245 30 44.3245C18.8025 44.3245 12.2588 39.5053 9.72424 34.6852C9.72424 34.6852 14.1446 27.667 14.7933 25.0458C16.7236 17.2739 21.6047 10.5858 30 10.5858C38.4 10.5858 43.2769 17.2739 45.2067 25.0448C45.8602 27.6666 50.2763 34.6847 50.2763 34.6847Z" fill="#E78244"/>
<path d="M45.2067 25.0448C43.2769 17.2739 38.4 10.5858 30 10.5858C29.5674 10.5858 29.1469 10.6078 28.733 10.6425C36.3586 11.2819 40.8427 17.6742 42.6732 25.0453C43.3266 27.667 47.7417 34.6847 47.7417 34.6847C45.3056 39.3183 39.1514 43.9378 28.7321 44.2894C29.1521 44.3039 29.5655 44.3241 29.9991 44.3241C41.1975 44.3241 47.7408 39.5048 50.2753 34.6847C50.2763 34.6847 45.8602 27.6666 45.2067 25.0448Z" fill="#D97A40"/>
<path d="M55.8122 54.4594C54.308 48.0459 45.3605 45.5916 41.7717 44.6944C38.1825 43.7972 34.6716 43.9284 30 43.9284C25.3285 43.9284 21.817 43.7972 18.2283 44.6944C14.6395 45.5916 5.69205 48.0459 4.18783 54.4594C2.68361 60.8728 2.9208 69.7416 2.9208 74.7291C13.8919 74.7291 30.0005 77.8969 30.0005 77.8969C30.0005 77.8969 46.1091 74.7291 57.0806 74.7291C57.0797 69.7406 57.3164 60.8724 55.8122 54.4594Z" fill="#C23527"/>
<path d="M55.8122 54.4594C54.308 48.0459 45.3605 45.5916 41.7717 44.6944C38.5069 43.8788 35.2969 43.9134 31.2305 43.9256C34.1564 43.9402 36.6816 44.055 39.2381 44.6944C42.8264 45.5916 51.7744 48.0459 53.2786 54.4594C54.7833 60.8728 54.5452 69.7416 54.5452 74.7291C45.4144 74.7291 32.7323 76.9219 28.733 77.6578C29.5388 77.8059 30 77.8969 30 77.8969C30 77.8969 46.1086 74.7291 57.0797 74.7291C57.0797 69.7406 57.3164 60.8724 55.8122 54.4594Z" fill="#B33124"/>
<path d="M27.4664 43.9273C27.9019 43.9273 28.3167 43.9261 28.733 43.9249C27.8644 43.9226 27.0347 43.9214 26.236 43.9249C26.6405 43.9257 27.0436 43.9273 27.4664 43.9273Z" fill="#B33124"/>
<path d="M30 48.1247C28.7063 48.1458 25.658 47.212 25.658 47.212L24.3853 37.8309H35.6142L34.3739 46.9838C34.3739 46.9838 31.3313 48.1031 30 48.1247Z" fill="#E6AFA0"/>
<path d="M33.7139 37.8314L32.4736 46.9838C32.4736 46.9838 30.42 47.738 28.9481 48.0192C29.3484 48.0867 29.7169 48.1284 29.9995 48.1247C31.3308 48.1027 34.373 46.9838 34.373 46.9838L35.6133 37.8314H33.7139Z" fill="#D9A597"/>
<path d="M19.3899 31.1677C19.9077 31.1677 20.3274 30.7479 20.3274 30.2302C20.3274 29.7124 19.9077 29.2927 19.3899 29.2927C18.8721 29.2927 18.4524 29.7124 18.4524 30.2302C18.4524 30.7479 18.8721 31.1677 19.3899 31.1677Z" fill="#992B1F"/>
<path d="M40.4452 31.1677C40.963 31.1677 41.3827 30.7479 41.3827 30.2302C41.3827 29.7124 40.963 29.2927 40.4452 29.2927C39.9274 29.2927 39.5077 29.7124 39.5077 30.2302C39.5077 30.7479 39.9274 31.1677 40.4452 31.1677Z" fill="#992B1F"/>
<path d="M30 41.8434C35.8599 41.8434 40.6102 36.1596 40.6102 29.1483C40.6102 22.1369 35.8599 16.4531 30 16.4531C24.1402 16.4531 19.3899 22.1369 19.3899 29.1483C19.3899 36.1596 24.1402 41.8434 30 41.8434Z" fill="#FFE1D9"/>
<path d="M30 16.4531C29.6789 16.4531 29.3635 16.477 29.0499 16.5108C34.4639 17.0864 38.7099 22.5211 38.7099 29.1483C38.7099 35.7755 34.463 41.2102 29.0499 41.7853C29.3635 41.8186 29.6794 41.843 30 41.843C35.8599 41.843 40.6102 36.1594 40.6102 29.1478C40.6102 22.1372 35.8599 16.4531 30 16.4531Z" fill="#F2D6CE"/>
<path d="M36.8086 18.2742C36.8086 24.4505 19.3899 18.9872 19.3899 30.2302C19.3899 30.2302 18.3605 13.5234 30 13.5234C35.0691 13.5234 36.8086 18.2742 36.8086 18.2742Z" fill="#E78244"/>
<path d="M34.9983 42.0544C34.9983 44.3869 32.7614 47.5444 30 47.5444C27.2395 47.5444 25.0017 44.3869 25.0017 42.0544C23.6681 42.5831 19.0509 43.9027 18.2283 44.6944C18.8925 47.6498 24.8836 52.9284 26.6358 52.9809C26.7258 51.345 27.66 49.207 28.5131 48.8109C29.0512 48.8109 29.5575 48.9169 30.0005 48.9169C30.443 48.9169 30.9492 48.8109 31.4878 48.8109C32.3409 49.207 33.2751 51.3445 33.3656 52.9809C35.1169 52.9289 41.1084 47.6498 41.7731 44.6944C40.9486 43.9027 36.3328 42.5836 34.9983 42.0544Z" fill="#F5F5F5"/>
<path d="M29.7464 48.9047C29.6934 48.8672 29.64 48.8363 29.5866 48.8114C29.4028 48.8114 29.2252 48.825 29.0494 48.8409C29.2927 48.8634 29.5256 48.8892 29.7464 48.9047Z" fill="#CCCCCC"/>
<path d="M29.7464 47.5355C27.0506 46.9472 25.0017 44.1117 25.0017 42.0544C24.6108 42.2095 23.9358 42.4341 23.1581 42.6905C23.5069 44.9217 26.7638 47.61 29.7464 47.5355Z" fill="#E6E6E6"/>
<path d="M26.7835 49.1841C26.0925 49.5727 25.1189 50.7169 24.8386 52.1822C25.5858 52.6655 26.2285 52.9692 26.6358 52.9814C26.7207 51.4472 27.7064 49.3777 28.5132 48.8114C28.4274 48.817 27.5925 48.7284 26.7835 49.1841Z" fill="#E6E6E6"/>
<path d="M34.9983 42.0544C34.9983 42.2602 34.9739 42.4744 34.9411 42.6905C36.8151 43.3116 39.2897 44.1338 39.8714 44.6939C39.3623 46.9608 35.722 50.5875 33.262 52.1813C33.3131 52.4541 33.3506 52.7241 33.3656 52.9814C35.1164 52.9289 41.1075 47.6494 41.7722 44.6939C40.9486 43.9027 36.3328 42.5836 34.9983 42.0544Z" fill="#E6E6E6"/>
<path d="M30 57.5742C30.6998 57.5742 31.267 57.007 31.267 56.3072C31.267 55.6074 30.6998 55.0402 30 55.0402C29.3002 55.0402 28.733 55.6074 28.733 56.3072C28.733 57.007 29.3002 57.5742 30 57.5742Z" fill="#242424"/>
</g>
<path d="M24.8438 29.3358C25.8793 29.3358 26.7188 28.7062 26.7188 27.9295C26.7188 27.1529 25.8793 26.5233 24.8438 26.5233C23.8082 26.5233 22.9688 27.1529 22.9688 27.9295C22.9688 28.7062 23.8082 29.3358 24.8438 29.3358Z" fill="#F5F5F5"/>
<path d="M24.8438 28.867C25.3615 28.867 25.7812 28.4473 25.7812 27.9295C25.7812 27.4118 25.3615 26.992 24.8438 26.992C24.326 26.992 23.9062 27.4118 23.9062 27.9295C23.9062 28.4473 24.326 28.867 24.8438 28.867Z" fill="#734822"/>
<path d="M34.2188 29.3358C35.2543 29.3358 36.0938 28.7062 36.0938 27.9295C36.0938 27.1529 35.2543 26.5233 34.2188 26.5233C33.1832 26.5233 32.3438 27.1529 32.3438 27.9295C32.3438 28.7062 33.1832 29.3358 34.2188 29.3358Z" fill="#F5F5F5"/>
<path d="M34.2188 28.867C34.7365 28.867 35.1562 28.4473 35.1562 27.9295C35.1562 27.4118 34.7365 26.992 34.2188 26.992C33.701 26.992 33.2812 27.4118 33.2812 27.9295C33.2812 28.4473 33.701 28.867 34.2188 28.867Z" fill="#734822"/>
</g>
<defs>
<clipPath id="clip0_2_28">
<rect width="60" height="60" fill="white"/>
</clipPath>
</defs>
</svg>
